<svg width="254" height="231" viewBox="0 0 254 231" fill="none" xmlns="http://www.w3.org/2000/svg">
<g clip-path="url(#clip0_7_40)">
<rect y="-0.000183105" width="254" height="230.95" rx="25.1087" fill="white"/>
<path d="M150.419 134.498L149.764 138.361L145.882 137.817L146.538 133.954L150.419 134.498ZM151.074 130.634L150.419 134.498L146.538 133.954L147.193 130.09L151.074 130.634ZM151.729 126.77L151.074 130.634L147.193 130.09L147.848 126.226L151.729 126.77ZM152.384 122.906L151.729 126.77L147.848 126.226L148.503 122.362L152.384 122.906ZM156.97 95.8591L156.314 99.7229L152.433 99.179L153.088 95.3151L156.97 95.8591ZM160.851 96.4031L160.196 100.267L156.314 99.7229L156.97 95.8591L160.851 96.4031ZM160.196 100.267L159.54 104.131L155.659 103.587L156.314 99.7229L160.196 100.267ZM159.54 104.131L158.885 107.995L155.004 107.451L155.659 103.587L159.54 104.131ZM160.146 123.994L159.491 127.858L155.61 127.314L156.265 123.45L160.146 123.994ZM159.491 127.858L158.836 131.722L154.955 131.178L155.61 127.314L159.491 127.858ZM158.836 131.722L158.181 135.586L154.3 135.042L154.955 131.178L158.836 131.722ZM158.181 135.586L157.526 139.449L153.645 138.905L154.3 135.042L158.181 135.586ZM157.526 139.449L156.871 143.313L152.989 142.769L153.645 138.905L157.526 139.449ZM156.871 143.313L156.215 147.177L152.334 146.633L152.989 142.769L156.871 143.313ZM156.215 147.177L155.56 151.041L151.679 150.497L152.334 146.633L156.215 147.177ZM163.322 152.129L162.667 155.993L158.786 155.449L159.441 151.585L163.322 152.129ZM163.978 148.265L163.322 152.129L159.441 151.585L160.096 147.721L163.978 148.265ZM164.633 144.401L163.978 148.265L160.096 147.721L160.752 143.857L164.633 144.401ZM165.288 140.537L164.633 144.401L160.752 143.857L161.407 139.993L165.288 140.537ZM165.943 136.674L165.288 140.537L161.407 139.993L162.062 136.13L165.943 136.674ZM166.598 132.81L165.943 136.674L162.062 136.13L162.717 132.266L166.598 132.81ZM167.253 128.946L166.598 132.81L162.717 132.266L163.372 128.402L167.253 128.946ZM167.908 125.082L167.253 128.946L163.372 128.402L164.027 124.538L167.908 125.082ZM164.027 124.538L163.372 128.402L159.491 127.858L160.146 123.994L164.027 124.538ZM163.372 128.402L162.717 132.266L158.836 131.722L159.491 127.858L163.372 128.402ZM162.717 132.266L162.062 136.13L158.181 135.586L158.836 131.722L162.717 132.266ZM162.062 136.13L161.407 139.993L157.526 139.449L158.181 135.586L162.062 136.13ZM161.407 139.993L160.752 143.857L156.871 143.313L157.526 139.449L161.407 139.993ZM160.752 143.857L160.096 147.721L156.215 147.177L156.871 143.313L160.752 143.857ZM160.096 147.721L159.441 151.585L155.56 151.041L156.215 147.177L160.096 147.721ZM152.989 142.769L152.334 146.633L148.453 146.089L149.108 142.225L152.989 142.769ZM153.645 138.905L152.989 142.769L149.108 142.225L149.764 138.361L153.645 138.905ZM154.3 135.042L153.645 138.905L149.764 138.361L150.419 134.498L154.3 135.042ZM154.955 131.178L154.3 135.042L150.419 134.498L151.074 130.634L154.955 131.178ZM155.61 127.314L154.955 131.178L151.074 130.634L151.729 126.77L155.61 127.314ZM156.265 123.45L155.61 127.314L151.729 126.77L152.384 122.906L156.265 123.45ZM157.625 91.9952L156.97 95.8591L153.088 95.3151L153.744 91.4512L157.625 91.9952ZM169.268 93.6272L168.613 97.491L164.732 96.947L165.387 93.0832L169.268 93.6272ZM168.613 97.491L167.958 101.355L164.077 100.811L164.732 96.947L168.613 97.491ZM167.958 101.355L167.303 105.219L163.421 104.675L164.077 100.811L167.958 101.355ZM167.303 105.219L166.647 109.083L162.766 108.539L163.421 104.675L167.303 105.219ZM166.647 109.083L165.992 112.946L162.111 112.402L162.766 108.539L166.647 109.083ZM169.873 113.49L169.218 117.354L165.337 116.81L165.992 112.946L169.873 113.49ZM170.528 109.627L169.873 113.49L165.992 112.946L166.647 109.083L170.528 109.627ZM171.184 105.763L170.528 109.627L166.647 109.083L167.303 105.219L171.184 105.763ZM171.839 101.899L171.184 105.763L167.303 105.219L167.958 101.355L171.839 101.899ZM172.494 98.035L171.839 101.899L167.958 101.355L168.613 97.491L172.494 98.035ZM173.149 94.1711L172.494 98.035L168.613 97.491L169.268 93.6272L173.149 94.1711ZM161.506 92.5392L160.851 96.4031L156.97 95.8591L157.625 91.9952L161.506 92.5392ZM165.387 93.0832L164.732 96.947L160.851 96.4031L161.506 92.5392L165.387 93.0832ZM164.732 96.947L164.077 100.811L160.196 100.267L160.851 96.4031L164.732 96.947ZM164.077 100.811L163.421 104.675L159.54 104.131L160.196 100.267L164.077 100.811ZM163.421 104.675L162.766 108.539L158.885 107.995L159.54 104.131L163.421 104.675ZM162.766 108.539L162.111 112.402L158.23 111.858L158.885 107.995L162.766 108.539ZM194.371 156.481L193.716 160.345L189.835 159.801L190.49 155.937L194.371 156.481ZM195.026 152.617L194.371 156.481L190.49 155.937L191.145 152.073L195.026 152.617ZM195.681 148.753L195.026 152.617L191.145 152.073L191.8 148.209L195.681 148.753ZM196.336 144.889L195.681 148.753L191.8 148.209L192.455 144.345L196.336 144.889ZM196.991 141.025L196.336 144.889L192.455 144.345L193.11 140.481L196.991 141.025ZM197.646 137.161L196.991 141.025L193.11 140.481L193.765 136.618L197.646 137.161ZM198.301 133.298L197.646 137.161L193.765 136.618L194.42 132.754L198.301 133.298ZM198.957 129.434L198.301 133.298L194.42 132.754L195.076 128.89L198.957 129.434ZM199.612 125.57L198.957 129.434L195.076 128.89L195.731 125.026L199.612 125.57ZM200.267 121.706L199.612 125.57L195.731 125.026L196.386 121.162L200.267 121.706ZM200.922 117.842L200.267 121.706L196.386 121.162L197.041 117.298L200.922 117.842ZM201.577 113.978L200.922 117.842L197.041 117.298L197.696 113.434L201.577 113.978ZM202.232 110.115L201.577 113.978L197.696 113.434L198.351 109.571L202.232 110.115ZM202.887 106.251L202.232 110.115L198.351 109.571L199.006 105.707L202.887 106.251ZM203.542 102.387L202.887 106.251L199.006 105.707L199.661 101.843L203.542 102.387ZM206.768 106.795L206.113 110.658L202.232 110.115L202.887 106.251L206.768 106.795ZM206.113 110.658L205.458 114.522L201.577 113.978L202.232 110.115L206.113 110.658ZM205.458 114.522L204.803 118.386L200.922 117.842L201.577 113.978L205.458 114.522ZM204.803 118.386L204.148 122.25L200.267 121.706L200.922 117.842L204.803 118.386ZM204.148 122.25L203.493 126.114L199.612 125.57L200.267 121.706L204.148 122.25ZM203.493 126.114L202.838 129.978L198.957 129.434L199.612 125.57L203.493 126.114ZM206.719 130.522L206.064 134.386L202.183 133.842L202.838 129.978L206.719 130.522ZM206.064 134.386L205.409 138.249L201.527 137.705L202.183 133.842L206.064 134.386ZM205.409 138.249L204.753 142.113L200.872 141.569L201.527 137.705L205.409 138.249ZM204.753 142.113L204.098 145.977L200.217 145.433L200.872 141.569L204.753 142.113ZM204.098 145.977L203.443 149.841L199.562 149.297L200.217 145.433L204.098 145.977ZM203.443 149.841L202.788 153.705L198.907 153.161L199.562 149.297L203.443 149.841ZM202.788 153.705L202.133 157.569L198.252 157.025L198.907 153.161L202.788 153.705ZM212.516 143.201L211.86 147.065L207.979 146.521L208.634 142.657L212.516 143.201ZM213.171 139.337L212.516 143.201L208.634 142.657L209.29 138.793L213.171 139.337ZM213.826 135.474L213.171 139.337L209.29 138.793L209.945 134.93L213.826 135.474ZM214.481 131.61L213.826 135.474L209.945 134.93L210.6 131.066L214.481 131.61ZM210.6 131.066L209.945 134.93L206.064 134.386L206.719 130.522L210.6 131.066ZM211.255 127.202L210.6 131.066L206.719 130.522L207.374 126.658L211.255 127.202ZM209.945 134.93L209.29 138.793L205.409 138.249L206.064 134.386L209.945 134.93ZM209.29 138.793L208.634 142.657L204.753 142.113L205.409 138.249L209.29 138.793ZM208.634 142.657L207.979 146.521L204.098 145.977L204.753 142.113L208.634 142.657ZM207.979 146.521L207.324 150.385L203.443 149.841L204.098 145.977L207.979 146.521ZM207.324 150.385L206.669 154.249L202.788 153.705L203.443 149.841L207.324 150.385ZM198.907 153.161L198.252 157.025L194.371 156.481L195.026 152.617L198.907 153.161ZM199.562 149.297L198.907 153.161L195.026 152.617L195.681 148.753L199.562 149.297ZM200.217 145.433L199.562 149.297L195.681 148.753L196.336 144.889L200.217 145.433ZM200.872 141.569L200.217 145.433L196.336 144.889L196.991 141.025L200.872 141.569ZM201.527 137.705L200.872 141.569L196.991 141.025L197.646 137.161L201.527 137.705ZM202.183 133.842L201.527 137.705L197.646 137.161L198.301 133.298L202.183 133.842ZM202.838 129.978L202.183 133.842L198.301 133.298L198.957 129.434L202.838 129.978ZM213.22 115.61L212.565 119.474L208.684 118.93L209.339 115.066L213.22 115.61ZM216.446 120.018L215.791 123.882L211.91 123.338L212.565 119.474L216.446 120.018ZM215.791 123.882L215.136 127.746L211.255 127.202L211.91 123.338L215.791 123.882ZM215.136 127.746L214.481 131.61L210.6 131.066L211.255 127.202L215.136 127.746ZM210.649 107.339L209.994 111.202L206.113 110.658L206.768 106.795L210.649 107.339ZM209.994 111.202L209.339 115.066L205.458 114.522L206.113 110.658L209.994 111.202ZM209.339 115.066L208.684 118.93L204.803 118.386L205.458 114.522L209.339 115.066ZM208.684 118.93L208.029 122.794L204.148 122.25L204.803 118.386L208.684 118.93ZM208.029 122.794L207.374 126.658L203.493 126.114L204.148 122.25L208.029 122.794ZM207.374 126.658L206.719 130.522L202.838 129.978L203.493 126.114L207.374 126.658ZM211.91 123.338L211.255 127.202L207.374 126.658L208.029 122.794L211.91 123.338ZM212.565 119.474L211.91 123.338L208.029 122.794L208.684 118.93L212.565 119.474ZM167.204 152.673L166.548 156.537L162.667 155.993L163.322 152.129L167.204 152.673ZM171.085 153.217L170.429 157.081L166.548 156.537L167.204 152.673L171.085 153.217ZM174.966 153.761L174.311 157.625L170.429 157.081L171.085 153.217L174.966 153.761ZM182.728 154.849L182.073 158.713L178.192 158.169L178.847 154.305L182.728 154.849ZM186.609 155.393L185.954 159.257L182.073 158.713L182.728 154.849L186.609 155.393ZM190.49 155.937L189.835 159.801L185.954 159.257L186.609 155.393L190.49 155.937ZM191.145 152.073L190.49 155.937L186.609 155.393L187.264 151.529L191.145 152.073ZM187.264 151.529L186.609 155.393L182.728 154.849L183.383 150.985L187.264 151.529ZM183.383 150.985L182.728 154.849L178.847 154.305L179.502 150.441L183.383 150.985ZM175.621 149.897L174.966 153.761L171.085 153.217L171.74 149.353L175.621 149.897ZM171.74 149.353L171.085 153.217L167.204 152.673L167.859 148.809L171.74 149.353ZM167.859 148.809L167.204 152.673L163.322 152.129L163.978 148.265L167.859 148.809ZM168.514 144.945L167.859 148.809L163.978 148.265L164.633 144.401L168.514 144.945ZM172.395 145.489L171.74 149.353L167.859 148.809L168.514 144.945L172.395 145.489ZM176.276 146.033L175.621 149.897L171.74 149.353L172.395 145.489L176.276 146.033ZM184.038 147.121L183.383 150.985L179.502 150.441L180.157 146.577L184.038 147.121ZM187.919 147.665L187.264 151.529L183.383 150.985L184.038 147.121L187.919 147.665ZM191.8 148.209L191.145 152.073L187.264 151.529L187.919 147.665L191.8 148.209ZM192.455 144.345L191.8 148.209L187.919 147.665L188.574 143.801L192.455 144.345ZM188.574 143.801L187.919 147.665L184.038 147.121L184.693 143.257L188.574 143.801ZM184.693 143.257L184.038 147.121L180.157 146.577L180.812 142.713L184.693 143.257ZM176.931 142.169L176.276 146.033L172.395 145.489L173.05 141.625L176.931 142.169ZM173.05 141.625L172.395 145.489L168.514 144.945L169.169 141.081L173.05 141.625ZM169.169 141.081L168.514 144.945L164.633 144.401L165.288 140.537L169.169 141.081ZM169.824 137.218L169.169 141.081L165.288 140.537L165.943 136.674L169.824 137.218ZM193.11 140.481L192.455 144.345L188.574 143.801L189.229 139.937L193.11 140.481ZM218.461 84.6995L219.116 80.8356L222.997 81.3796L222.342 85.2434L218.461 84.6995ZM217.806 88.5633L218.461 84.6995L222.342 85.2434L221.687 89.1073L217.806 88.5633ZM217.151 92.4272L217.806 88.5633L221.687 89.1073L221.032 92.9711L217.151 92.4272ZM209.389 91.3392L210.044 87.4754L213.925 88.0193L213.27 91.8832L209.389 91.3392ZM210.044 87.4754L210.699 83.6115L214.58 84.1555L213.925 88.0193L210.044 87.4754ZM210.699 83.6115L211.354 79.7476L215.235 80.2916L214.58 84.1555L210.699 83.6115ZM211.354 79.7476L212.009 75.8838L215.89 76.4278L215.235 80.2916L211.354 79.7476ZM212.009 75.8838L212.664 72.0199L216.545 72.5639L215.89 76.4278L212.009 75.8838ZM212.664 72.0199L213.319 68.1561L217.2 68.7001L216.545 72.5639L212.664 72.0199ZM205.557 67.0681L206.212 63.2043L210.093 63.7483L209.438 67.6121L205.557 67.0681ZM204.902 70.932L205.557 67.0681L209.438 67.6121L208.783 71.476L204.902 70.932ZM204.247 74.7958L204.902 70.932L208.783 71.476L208.128 75.3398L204.247 74.7958ZM203.592 78.6597L204.247 74.7958L208.128 75.3398L207.473 79.2037L203.592 78.6597ZM202.937 82.5236L203.592 78.6597L207.473 79.2037L206.818 83.0675L202.937 82.5236ZM202.282 86.3874L202.937 82.5236L206.818 83.0675L206.163 86.9314L202.282 86.3874ZM201.626 90.2513L202.282 86.3874L206.163 86.9314L205.508 90.7952L201.626 90.2513ZM205.508 90.7952L206.163 86.9314L210.044 87.4754L209.389 91.3392L205.508 90.7952ZM206.163 86.9314L206.818 83.0675L210.699 83.6115L210.044 87.4754L206.163 86.9314ZM206.818 83.0675L207.473 79.2037L211.354 79.7476L210.699 83.6115L206.818 83.0675ZM207.473 79.2037L208.128 75.3398L212.009 75.8838L211.354 79.7476L207.473 79.2037ZM208.128 75.3398L208.783 71.476L212.664 72.0199L212.009 75.8838L208.128 75.3398ZM208.783 71.476L209.438 67.6121L213.319 68.1561L212.664 72.0199L208.783 71.476ZM215.89 76.4278L216.545 72.5639L220.426 73.1079L219.771 76.9718L215.89 76.4278ZM215.235 80.2916L215.89 76.4278L219.771 76.9718L219.116 80.8356L215.235 80.2916ZM214.58 84.1555L215.235 80.2916L219.116 80.8356L218.461 84.6995L214.58 84.1555ZM213.925 88.0193L214.58 84.1555L218.461 84.6995L217.806 88.5633L213.925 88.0193ZM213.27 91.8832L213.925 88.0193L217.806 88.5633L217.151 92.4272L213.27 91.8832ZM174.509 62.7163L175.164 58.8525L179.045 59.3964L178.39 63.2603L174.509 62.7163ZM173.853 66.5802L174.509 62.7163L178.39 63.2603L177.735 67.1241L173.853 66.5802ZM173.198 70.444L173.853 66.5802L177.735 67.1241L177.079 70.988L173.198 70.444ZM172.543 74.3079L173.198 70.444L177.079 70.988L176.424 74.8519L172.543 74.3079ZM171.888 78.1717L172.543 74.3079L176.424 74.8519L175.769 78.7157L171.888 78.1717ZM171.233 82.0356L171.888 78.1717L175.769 78.7157L175.114 82.5796L171.233 82.0356ZM170.578 85.8994L171.233 82.0356L175.114 82.5796L174.459 86.4434L170.578 85.8994ZM162.816 84.8115L163.471 80.9476L167.352 81.4916L166.697 85.3555L162.816 84.8115ZM163.471 80.9476L164.126 77.0838L168.007 77.6278L167.352 81.4916L163.471 80.9476ZM164.126 77.0838L164.781 73.2199L168.662 73.7639L168.007 77.6278L164.126 77.0838ZM164.781 73.2199L165.436 69.3561L169.317 69.9001L168.662 73.7639L164.781 73.2199ZM165.436 69.3561L166.091 65.4922L169.972 66.0362L169.317 69.9001L165.436 69.3561ZM166.091 65.4922L166.746 61.6284L170.628 62.1723L169.972 66.0362L166.091 65.4922ZM156.364 75.9958L157.019 72.132L160.9 72.676L160.245 76.5398L156.364 75.9958ZM155.709 79.8597L156.364 75.9958L160.245 76.5398L159.59 80.4037L155.709 79.8597ZM155.054 83.7235L155.709 79.8597L159.59 80.4037L158.935 84.2675L155.054 83.7235ZM158.935 84.2675L159.59 80.4037L163.471 80.9476L162.816 84.8115L158.935 84.2675ZM159.59 80.4037L160.245 76.5398L164.126 77.0838L163.471 80.9476L159.59 80.4037ZM160.245 76.5398L160.9 72.676L164.781 73.2199L164.126 77.0838L160.245 76.5398ZM160.9 72.676L161.555 68.8121L165.436 69.3561L164.781 73.2199L160.9 72.676ZM161.555 68.8121L162.21 64.9482L166.091 65.4922L165.436 69.3561L161.555 68.8121ZM169.972 66.0362L170.628 62.1723L174.509 62.7163L173.853 66.5802L169.972 66.0362ZM169.317 69.9001L169.972 66.0362L173.853 66.5802L173.198 70.444L169.317 69.9001ZM168.662 73.7639L169.317 69.9001L173.198 70.444L172.543 74.3079L168.662 73.7639ZM168.007 77.6278L168.662 73.7639L172.543 74.3079L171.888 78.1717L168.007 77.6278ZM167.352 81.4916L168.007 77.6278L171.888 78.1717L171.233 82.0356L167.352 81.4916ZM166.697 85.3555L167.352 81.4916L171.233 82.0356L170.578 85.8994L166.697 85.3555ZM201.676 66.5242L202.331 62.6603L206.212 63.2043L205.557 67.0681L201.676 66.5242ZM197.795 65.9802L198.45 62.1163L202.331 62.6603L201.676 66.5242L197.795 65.9802ZM193.914 65.4362L194.569 61.5723L198.45 62.1163L197.795 65.9802L193.914 65.4362ZM186.152 64.3483L186.807 60.4844L190.688 61.0284L190.033 64.8922L186.152 64.3483ZM182.271 63.8043L182.926 59.9404L186.807 60.4844L186.152 64.3483L182.271 63.8043ZM178.39 63.2603L179.045 59.3964L182.926 59.9404L182.271 63.8043L178.39 63.2603ZM177.735 67.1241L178.39 63.2603L182.271 63.8043L181.616 67.6681L177.735 67.1241ZM181.616 67.6681L182.271 63.8043L186.152 64.3483L185.497 68.2121L181.616 67.6681ZM185.497 68.2121L186.152 64.3483L190.033 64.8922L189.378 68.7561L185.497 68.2121ZM193.259 69.3001L193.914 65.4362L197.795 65.9802L197.14 69.844L193.259 69.3001ZM197.14 69.844L197.795 65.9802L201.676 66.5242L201.021 70.388L197.14 69.844ZM201.021 70.388L201.676 66.5242L205.557 67.0681L204.902 70.932L201.021 70.388ZM200.366 74.2519L201.021 70.388L204.902 70.932L204.247 74.7958L200.366 74.2519ZM196.485 73.7079L197.14 69.844L201.021 70.388L200.366 74.2519L196.485 73.7079ZM192.604 73.1639L193.259 69.3001L197.14 69.844L196.485 73.7079L192.604 73.1639ZM184.842 72.076L185.497 68.2121L189.378 68.7561L188.723 72.6199L184.842 72.076ZM180.961 71.532L181.616 67.6681L185.497 68.2121L184.842 72.076L180.961 71.532ZM177.079 70.988L177.735 67.1241L181.616 67.6681L180.961 71.532L177.079 70.988ZM176.424 74.8519L177.079 70.988L180.961 71.532L180.305 75.3958L176.424 74.8519ZM180.305 75.3958L180.961 71.532L184.842 72.076L184.186 75.9398L180.305 75.3958ZM184.186 75.9398L184.842 72.076L188.723 72.6199L188.068 76.4838L184.186 75.9398ZM191.949 77.0278L192.604 73.1639L196.485 73.7079L195.83 77.5717L191.949 77.0278ZM195.83 77.5717L196.485 73.7079L200.366 74.2519L199.711 78.1157L195.83 77.5717ZM199.711 78.1157L200.366 74.2519L204.247 74.7958L203.592 78.6597L199.711 78.1157ZM199.056 81.9796L199.711 78.1157L203.592 78.6597L202.937 82.5236L199.056 81.9796ZM175.769 78.7157L176.424 74.8519L180.305 75.3958L179.65 79.2597L175.769 78.7157ZM158.28 88.1314L157.625 91.9952L153.744 91.4512L154.399 87.5874L158.28 88.1314ZM162.161 88.6753L161.506 92.5392L157.625 91.9952L158.28 88.1314L162.161 88.6753ZM158.935 84.2675L158.28 88.1314L154.399 87.5874L155.054 83.7235L158.935 84.2675ZM170.578 85.8994L169.923 89.7633L166.042 89.2193L166.697 85.3555L170.578 85.8994ZM169.923 89.7633L169.268 93.6272L165.387 93.0832L166.042 89.2193L169.923 89.7633ZM173.804 90.3073L173.149 94.1711L169.268 93.6272L169.923 89.7633L173.804 90.3073ZM174.459 86.4434L173.804 90.3073L169.923 89.7633L170.578 85.8994L174.459 86.4434ZM162.816 84.8115L162.161 88.6753L158.28 88.1314L158.935 84.2675L162.816 84.8115ZM166.697 85.3555L166.042 89.2193L162.161 88.6753L162.816 84.8115L166.697 85.3555ZM166.042 89.2193L165.387 93.0832L161.506 92.5392L162.161 88.6753L166.042 89.2193ZM173.705 137.761L173.05 141.625L169.169 141.081L169.824 137.218L173.705 137.761ZM177.586 138.305L176.931 142.169L173.05 141.625L173.705 137.761L177.586 138.305ZM185.348 139.393L184.693 143.257L180.812 142.713L181.467 138.849L185.348 139.393ZM189.229 139.937L188.574 143.801L184.693 143.257L185.348 139.393L189.229 139.937ZM193.765 136.618L193.11 140.481L189.229 139.937L189.884 136.074L193.765 136.618ZM170.479 133.354L169.824 137.218L165.943 136.674L166.598 132.81L170.479 133.354ZM184.186 75.9398L183.531 79.8037L179.65 79.2597L180.305 75.3958L184.186 75.9398ZM188.068 76.4838L187.412 80.3476L183.531 79.8037L184.186 75.9398L188.068 76.4838ZM195.83 77.5717L195.175 81.4356L191.293 80.8916L191.949 77.0278L195.83 77.5717ZM199.711 78.1157L199.056 81.9796L195.175 81.4356L195.83 77.5717L199.711 78.1157ZM202.937 82.5236L202.282 86.3874L198.401 85.8434L199.056 81.9796L202.937 82.5236ZM179.65 79.2597L178.995 83.1235L175.114 82.5796L175.769 78.7157L179.65 79.2597ZM182.827 107.395L182.172 111.258L178.291 110.714L178.946 106.851L182.827 107.395ZM190.589 108.483L189.934 112.346L186.053 111.802L186.708 107.939L190.589 108.483ZM194.47 109.027L193.815 112.89L189.934 112.346L190.589 108.483L194.47 109.027ZM198.351 109.571L197.696 113.434L193.815 112.89L194.47 109.027L198.351 109.571ZM197.696 113.434L197.041 117.298L193.16 116.754L193.815 112.89L197.696 113.434ZM193.815 112.89L193.16 116.754L189.279 116.21L189.934 112.346L193.815 112.89ZM189.934 112.346L189.279 116.21L185.398 115.666L186.053 111.802L189.934 112.346ZM182.172 111.258L181.517 115.122L177.636 114.578L178.291 110.714L182.172 111.258ZM184.137 99.6669L183.482 103.531L179.601 102.987L180.256 99.1229L184.137 99.6669ZM191.899 100.755L191.244 104.619L187.363 104.075L188.018 100.211L191.899 100.755ZM195.78 101.299L195.125 105.163L191.244 104.619L191.899 100.755L195.78 101.299ZM199.661 101.843L199.006 105.707L195.125 105.163L195.78 101.299L199.661 101.843ZM199.006 105.707L198.351 109.571L194.47 109.027L195.125 105.163L199.006 105.707ZM195.125 105.163L194.47 109.027L190.589 108.483L191.244 104.619L195.125 105.163ZM191.244 104.619L190.589 108.483L186.708 107.939L187.363 104.075L191.244 104.619ZM183.482 103.531L182.827 107.395L178.946 106.851L179.601 102.987L183.482 103.531ZM181.517 115.122L180.861 118.986L176.98 118.442L177.636 114.578L181.517 115.122ZM189.279 116.21L188.624 120.074L184.743 119.53L185.398 115.666L189.279 116.21ZM193.16 116.754L192.505 120.618L188.624 120.074L189.279 116.21L193.16 116.754ZM197.041 117.298L196.386 121.162L192.505 120.618L193.16 116.754L197.041 117.298ZM213.875 111.746L213.22 115.61L209.339 115.066L209.994 111.202L213.875 111.746ZM196.386 121.162L195.731 125.026L191.85 124.482L192.505 120.618L196.386 121.162ZM176.375 98.579L175.72 102.443L171.839 101.899L172.494 98.035L176.375 98.579ZM180.256 99.1229L179.601 102.987L175.72 102.443L176.375 98.579L180.256 99.1229ZM177.03 94.7151L176.375 98.579L172.494 98.035L173.149 94.1711L177.03 94.7151ZM179.601 102.987L178.946 106.851L175.065 106.307L175.72 102.443L179.601 102.987ZM178.946 106.851L178.291 110.714L174.41 110.171L175.065 106.307L178.946 106.851ZM178.291 110.714L177.636 114.578L173.754 114.034L174.41 110.171L178.291 110.714ZM177.636 114.578L176.98 118.442L173.099 117.898L173.754 114.034L177.636 114.578ZM173.754 114.034L173.099 117.898L169.218 117.354L169.873 113.49L173.754 114.034ZM174.41 110.171L173.754 114.034L169.873 113.49L170.528 109.627L174.41 110.171ZM175.065 106.307L174.41 110.171L170.528 109.627L171.184 105.763L175.065 106.307ZM175.72 102.443L175.065 106.307L171.184 105.763L171.839 101.899L175.72 102.443ZM194.569 61.5723L193.914 65.4362L190.033 64.8922L190.688 61.0284L194.569 61.5723ZM193.914 65.4362L193.259 69.3001L189.378 68.7561L190.033 64.8922L193.914 65.4362ZM193.259 69.3001L192.604 73.1639L188.723 72.6199L189.378 68.7561L193.259 69.3001ZM192.604 73.1639L191.949 77.0278L188.068 76.4838L188.723 72.6199L192.604 73.1639ZM191.949 77.0278L191.293 80.8916L187.412 80.3476L188.068 76.4838L191.949 77.0278ZM188.018 100.211L187.363 104.075L183.482 103.531L184.137 99.6669L188.018 100.211ZM187.363 104.075L186.708 107.939L182.827 107.395L183.482 103.531L187.363 104.075ZM186.708 107.939L186.053 111.802L182.172 111.258L182.827 107.395L186.708 107.939ZM186.053 111.802L185.398 115.666L181.517 115.122L182.172 111.258L186.053 111.802ZM185.398 115.666L184.743 119.53L180.861 118.986L181.517 115.122L185.398 115.666ZM181.467 138.849L180.812 142.713L176.931 142.169L177.586 138.305L181.467 138.849ZM180.812 142.713L180.157 146.577L176.276 146.033L176.931 142.169L180.812 142.713ZM180.157 146.577L179.502 150.441L175.621 149.897L176.276 146.033L180.157 146.577ZM179.502 150.441L178.847 154.305L174.966 153.761L175.621 149.897L179.502 150.441ZM178.847 154.305L178.192 158.169L174.311 157.625L174.966 153.761L178.847 154.305Z" fill="black"/>
<path d="M43.557 170.274L44.4752 176.207L38.5203 176.969L37.6021 171.036L43.557 170.274ZM42.6388 164.341L43.557 170.274L37.6021 171.036L36.6839 165.103L42.6388 164.341ZM41.7206 158.408L42.6388 164.341L36.6839 165.103L35.7657 159.17L41.7206 158.408ZM40.8024 152.475L41.7206 158.408L35.7657 159.17L34.8475 153.237L40.8024 152.475ZM52.7123 150.951L53.6305 156.884L47.6756 157.646L46.7574 151.713L52.7123 150.951ZM53.6305 156.884L54.5487 162.817L48.5938 163.579L47.6756 157.646L53.6305 156.884ZM54.5487 162.817L55.4669 168.75L49.512 169.512L48.5938 163.579L54.5487 162.817ZM55.4669 168.75L56.3852 174.683L50.4302 175.445L49.512 169.512L55.4669 168.75ZM56.3852 174.683L57.3034 180.616L51.3484 181.378L50.4302 175.445L56.3852 174.683ZM57.3034 180.616L58.2216 186.549L52.2666 187.311L51.3484 181.378L57.3034 180.616ZM58.2216 186.549L59.1398 192.482L53.1848 193.243L52.2666 187.311L58.2216 186.549ZM71.0497 190.958L71.9679 196.891L66.0129 197.653L65.0947 191.72L71.0497 190.958ZM70.1315 185.025L71.0497 190.958L65.0947 191.72L64.1765 185.787L70.1315 185.025ZM69.2133 179.092L70.1315 185.025L64.1765 185.787L63.2583 179.854L69.2133 179.092ZM68.2951 173.159L69.2133 179.092L63.2583 179.854L62.3401 173.921L68.2951 173.159ZM67.3769 167.226L68.2951 173.159L62.3401 173.921L61.4219 167.988L67.3769 167.226ZM66.4587 161.293L67.3769 167.226L61.4219 167.988L60.5037 162.055L66.4587 161.293ZM65.5404 155.361L66.4587 161.293L60.5037 162.055L59.5855 156.122L65.5404 155.361ZM64.6222 149.428L65.5404 155.361L59.5855 156.122L58.6673 150.19L64.6222 149.428ZM58.6673 150.19L59.5855 156.122L53.6305 156.884L52.7123 150.951L58.6673 150.19ZM59.5855 156.122L60.5037 162.055L54.5487 162.817L53.6305 156.884L59.5855 156.122ZM60.5037 162.055L61.4219 167.988L55.4669 168.75L54.5487 162.817L60.5037 162.055ZM61.4219 167.988L62.3401 173.921L56.3852 174.683L55.4669 168.75L61.4219 167.988ZM62.3401 173.921L63.2583 179.854L57.3034 180.616L56.3852 174.683L62.3401 173.921ZM63.2583 179.854L64.1765 185.787L58.2216 186.549L57.3034 180.616L63.2583 179.854ZM64.1765 185.787L65.0947 191.72L59.1398 192.482L58.2216 186.549L64.1765 185.787ZM51.3484 181.378L52.2666 187.311L46.3117 188.072L45.3935 182.14L51.3484 181.378ZM50.4302 175.445L51.3484 181.378L45.3935 182.14L44.4752 176.207L50.4302 175.445ZM49.512 169.512L50.4302 175.445L44.4752 176.207L43.557 170.274L49.512 169.512ZM48.5938 163.579L49.512 169.512L43.557 170.274L42.6388 164.341L48.5938 163.579ZM47.6756 157.646L48.5938 163.579L42.6388 164.341L41.7206 158.408L47.6756 157.646ZM46.7574 151.713L47.6756 157.646L41.7206 158.408L40.8024 152.475L46.7574 151.713ZM106.779 186.386L107.698 192.319L101.743 193.081L100.824 187.148L106.779 186.386ZM105.861 180.453L106.779 186.386L100.824 187.148L99.9063 181.215L105.861 180.453ZM104.943 174.521L105.861 180.453L99.9063 181.215L98.9881 175.282L104.943 174.521ZM104.025 168.588L104.943 174.521L98.9881 175.282L98.0698 169.35L104.025 168.588ZM103.107 162.655L104.025 168.588L98.0698 169.35L97.1516 163.417L103.107 162.655ZM102.188 156.722L103.107 162.655L97.1516 163.417L96.2334 157.484L102.188 156.722ZM101.27 150.789L102.188 156.722L96.2334 157.484L95.3152 151.551L101.27 150.789ZM100.352 144.856L101.27 150.789L95.3152 151.551L94.397 145.618L100.352 144.856ZM99.4338 138.923L100.352 144.856L94.397 145.618L93.4788 139.685L99.4338 138.923ZM98.5156 132.991L99.4338 138.923L93.4788 139.685L92.5606 133.752L98.5156 132.991ZM97.5973 127.058L98.5156 132.991L92.5606 133.752L91.6424 127.82L97.5973 127.058ZM103.552 126.296L104.471 132.229L98.5156 132.991L97.5973 127.058L103.552 126.296ZM104.471 132.229L105.389 138.161L99.4338 138.923L98.5156 132.991L104.471 132.229ZM105.389 138.161L106.307 144.094L100.352 144.856L99.4338 138.923L105.389 138.161ZM112.262 143.332L113.18 149.265L107.225 150.027L106.307 144.094L112.262 143.332ZM113.18 149.265L114.098 155.198L108.143 155.96L107.225 150.027L113.18 149.265ZM114.098 155.198L115.017 161.131L109.062 161.893L108.143 155.96L114.098 155.198ZM115.017 161.131L115.935 167.064L109.98 167.826L109.062 161.893L115.017 161.131ZM115.935 167.064L116.853 172.997L110.898 173.759L109.98 167.826L115.935 167.064ZM116.853 172.997L117.771 178.93L111.816 179.692L110.898 173.759L116.853 172.997ZM117.771 178.93L118.689 184.862L112.734 185.624L111.816 179.692L117.771 178.93ZM126.926 159.607L127.845 165.54L121.89 166.302L120.971 160.369L126.926 159.607ZM126.008 153.674L126.926 159.607L120.971 160.369L120.053 154.436L126.008 153.674ZM125.09 147.741L126.008 153.674L120.053 154.436L119.135 148.503L125.09 147.741ZM124.172 141.809L125.09 147.741L119.135 148.503L118.217 142.571L124.172 141.809ZM118.217 142.571L119.135 148.503L113.18 149.265L112.262 143.332L118.217 142.571ZM117.299 136.638L118.217 142.571L112.262 143.332L111.344 137.4L117.299 136.638ZM119.135 148.503L120.053 154.436L114.098 155.198L113.18 149.265L119.135 148.503ZM120.053 154.436L120.971 160.369L115.017 161.131L114.098 155.198L120.053 154.436ZM120.971 160.369L121.89 166.302L115.935 167.064L115.017 161.131L120.971 160.369ZM121.89 166.302L122.808 172.235L116.853 172.997L115.935 167.064L121.89 166.302ZM122.808 172.235L123.726 178.168L117.771 178.93L116.853 172.997L122.808 172.235ZM111.816 179.692L112.734 185.624L106.779 186.386L105.861 180.453L111.816 179.692ZM110.898 173.759L111.816 179.692L105.861 180.453L104.943 174.521L110.898 173.759ZM109.98 167.826L110.898 173.759L104.943 174.521L104.025 168.588L109.98 167.826ZM109.062 161.893L109.98 167.826L104.025 168.588L103.107 162.655L109.062 161.893ZM108.143 155.96L109.062 161.893L103.107 162.655L102.188 156.722L108.143 155.96ZM107.225 150.027L108.143 155.96L102.188 156.722L101.27 150.789L107.225 150.027ZM106.307 144.094L107.225 150.027L101.27 150.789L100.352 144.856L106.307 144.094ZM121.417 124.01L122.335 129.943L116.38 130.705L115.462 124.772L121.417 124.01ZM122.335 129.943L123.254 135.876L117.299 136.638L116.38 130.705L122.335 129.943ZM123.254 135.876L124.172 141.809L118.217 142.571L117.299 136.638L123.254 135.876ZM109.507 125.534L110.425 131.467L104.471 132.229L103.552 126.296L109.507 125.534ZM110.425 131.467L111.344 137.4L105.389 138.161L104.471 132.229L110.425 131.467ZM111.344 137.4L112.262 143.332L106.307 144.094L105.389 138.161L111.344 137.4ZM116.38 130.705L117.299 136.638L111.344 137.4L110.425 131.467L116.38 130.705ZM115.462 124.772L116.38 130.705L110.425 131.467L109.507 125.534L115.462 124.772ZM77.0046 190.196L77.9229 196.129L71.9679 196.891L71.0497 190.958L77.0046 190.196ZM82.9596 189.434L83.8778 195.367L77.9229 196.129L77.0046 190.196L82.9596 189.434ZM88.9146 188.672L89.8328 194.605L83.8778 195.367L82.9596 189.434L88.9146 188.672ZM94.8695 187.91L95.7877 193.843L89.8328 194.605L88.9146 188.672L94.8695 187.91ZM100.824 187.148L101.743 193.081L95.7877 193.843L94.8695 187.91L100.824 187.148ZM99.9063 181.215L100.824 187.148L94.8695 187.91L93.9513 181.977L99.9063 181.215ZM93.9513 181.977L94.8695 187.91L88.9146 188.672L87.9963 182.739L93.9513 181.977ZM87.9963 182.739L88.9146 188.672L82.9596 189.434L82.0414 183.501L87.9963 182.739ZM82.0414 183.501L82.9596 189.434L77.0046 190.196L76.0864 184.263L82.0414 183.501ZM76.0864 184.263L77.0046 190.196L71.0497 190.958L70.1315 185.025L76.0864 184.263ZM75.1682 178.33L76.0864 184.263L70.1315 185.025L69.2133 179.092L75.1682 178.33ZM81.1232 177.568L82.0414 183.501L76.0864 184.263L75.1682 178.33L81.1232 177.568ZM87.0781 176.806L87.9963 182.739L82.0414 183.501L81.1232 177.568L87.0781 176.806ZM93.0331 176.044L93.9513 181.977L87.9963 182.739L87.0781 176.806L93.0331 176.044ZM98.9881 175.282L99.9063 181.215L93.9513 181.977L93.0331 176.044L98.9881 175.282ZM98.0698 169.35L98.9881 175.282L93.0331 176.044L92.1149 170.112L98.0698 169.35ZM92.1149 170.112L93.0331 176.044L87.0781 176.806L86.1599 170.873L92.1149 170.112ZM86.1599 170.873L87.0781 176.806L81.1232 177.568L80.205 171.635L86.1599 170.873ZM80.205 171.635L81.1232 177.568L75.1682 178.33L74.25 172.397L80.205 171.635ZM74.25 172.397L75.1682 178.33L69.2133 179.092L68.2951 173.159L74.25 172.397ZM73.3318 166.464L74.25 172.397L68.2951 173.159L67.3769 167.226L73.3318 166.464ZM97.1516 163.417L98.0698 169.35L92.1149 170.112L91.1967 164.179L97.1516 163.417ZM84.7424 43.9975L85.6606 49.9304L79.7057 50.6923L78.7875 44.7594L84.7424 43.9975ZM85.6606 49.9304L86.5788 55.8633L80.6239 56.6252L79.7057 50.6923L85.6606 49.9304ZM86.5788 55.8633L87.4971 61.7961L81.5421 62.558L80.6239 56.6252L86.5788 55.8633ZM87.4971 61.7961L88.4153 67.729L82.4603 68.4909L81.5421 62.558L87.4971 61.7961ZM88.4153 67.729L89.3335 73.6619L83.3785 74.4238L82.4603 68.4909L88.4153 67.729ZM89.3335 73.6619L90.2517 79.5947L84.2967 80.3566L83.3785 74.4238L89.3335 73.6619ZM90.2517 79.5947L91.1699 85.5276L85.2149 86.2895L84.2967 80.3566L90.2517 79.5947ZM91.1699 85.5276L92.0881 91.4604L86.1331 92.2224L85.2149 86.2895L91.1699 85.5276ZM92.0881 91.4604L93.0063 97.3933L87.0513 98.1552L86.1331 92.2224L92.0881 91.4604ZM93.0063 97.3933L93.9245 103.326L87.9696 104.088L87.0513 98.1552L93.0063 97.3933ZM93.9245 103.326L94.8427 109.259L88.8878 110.021L87.9696 104.088L93.9245 103.326ZM94.8427 109.259L95.7609 115.192L89.806 115.954L88.8878 110.021L94.8427 109.259ZM100.798 108.497L101.716 114.43L95.7609 115.192L94.8427 109.259L100.798 108.497ZM101.716 114.43L102.634 120.363L96.6791 121.125L95.7609 115.192L101.716 114.43ZM95.7609 115.192L96.6791 121.125L90.7242 121.887L89.806 115.954L95.7609 115.192ZM96.6791 121.125L97.5973 127.058L91.6424 127.82L90.7242 121.887L96.6791 121.125ZM102.634 120.363L103.552 126.296L97.5973 127.058L96.6791 121.125L102.634 120.363ZM108.589 119.601L109.507 125.534L103.552 126.296L102.634 120.363L108.589 119.601ZM114.544 118.839L115.462 124.772L109.507 125.534L108.589 119.601L114.544 118.839ZM120.499 118.077L121.417 124.01L115.462 124.772L114.544 118.839L120.499 118.077ZM119.581 112.144L120.499 118.077L114.544 118.839L113.626 112.906L119.581 112.144ZM113.626 112.906L114.544 118.839L108.589 119.601L107.671 113.668L113.626 112.906ZM112.708 106.973L113.626 112.906L107.671 113.668L106.753 107.735L112.708 106.973ZM117.744 100.279L118.663 106.211L112.708 106.973L111.789 101.04L117.744 100.279ZM116.826 94.3457L117.744 100.279L111.789 101.04L110.871 95.1076L116.826 94.3457ZM115.908 88.4128L116.826 94.3457L110.871 95.1076L109.953 89.1747L115.908 88.4128ZM114.99 82.48L115.908 88.4128L109.953 89.1747L109.035 83.2419L114.99 82.48ZM114.072 76.5471L114.99 82.48L109.035 83.2419L108.117 77.309L114.072 76.5471ZM113.153 70.6142L114.072 76.5471L108.117 77.309L107.198 71.3761L113.153 70.6142ZM112.235 64.6814L113.153 70.6142L107.198 71.3761L106.28 65.4433L112.235 64.6814ZM111.317 58.7485L112.235 64.6814L106.28 65.4433L105.362 59.5104L111.317 58.7485ZM118.663 106.211L119.581 112.144L113.626 112.906L112.708 106.973L118.663 106.211ZM110.399 52.8156L111.317 58.7485L105.362 59.5104L104.444 53.5775L110.399 52.8156ZM109.48 46.8828L110.399 52.8156L104.444 53.5775L103.526 47.6447L109.48 46.8828ZM108.562 40.9499L109.48 46.8828L103.526 47.6447L102.607 41.7118L108.562 40.9499ZM102.607 41.7118L103.526 47.6447L97.5706 48.4066L96.6523 42.4737L102.607 41.7118ZM96.6523 42.4737L97.5706 48.4066L91.6156 49.1685L90.6974 43.2356L96.6523 42.4737ZM90.6974 43.2356L91.6156 49.1685L85.6606 49.9304L84.7424 43.9975L90.6974 43.2356ZM91.6156 49.1685L92.5338 55.1013L86.5788 55.8633L85.6606 49.9304L91.6156 49.1685ZM92.5338 55.1013L93.452 61.0342L87.4971 61.7961L86.5788 55.8633L92.5338 55.1013ZM93.452 61.0342L94.3702 66.9671L88.4153 67.729L87.4971 61.7961L93.452 61.0342ZM94.3702 66.9671L95.2884 72.8999L89.3335 73.6619L88.4153 67.729L94.3702 66.9671ZM95.2884 72.8999L96.2066 78.8328L90.2517 79.5947L89.3335 73.6619L95.2884 72.8999ZM96.2066 78.8328L97.1248 84.7657L91.1699 85.5276L90.2517 79.5947L96.2066 78.8328ZM97.1248 84.7657L98.0431 90.6985L92.0881 91.4604L91.1699 85.5276L97.1248 84.7657ZM98.0431 90.6985L98.9613 96.6314L93.0063 97.3933L92.0881 91.4604L98.0431 90.6985ZM98.9613 96.6314L99.8795 102.564L93.9245 103.326L93.0063 97.3933L98.9613 96.6314ZM105.834 101.802L106.753 107.735L100.798 108.497L99.8795 102.564L105.834 101.802ZM106.753 107.735L107.671 113.668L101.716 114.43L100.798 108.497L106.753 107.735ZM107.671 113.668L108.589 119.601L102.634 120.363L101.716 114.43L107.671 113.668ZM99.8795 102.564L100.798 108.497L94.8427 109.259L93.9245 103.326L99.8795 102.564ZM111.789 101.04L112.708 106.973L106.753 107.735L105.834 101.802L111.789 101.04ZM109.953 89.1747L110.871 95.1076L104.916 95.8695L103.998 89.9366L109.953 89.1747ZM109.035 83.2419L109.953 89.1747L103.998 89.9366L103.08 84.0038L109.035 83.2419ZM108.117 77.309L109.035 83.2419L103.08 84.0038L102.162 78.0709L108.117 77.309ZM107.198 71.3761L108.117 77.309L102.162 78.0709L101.243 72.138L107.198 71.3761ZM106.28 65.4433L107.198 71.3761L101.243 72.138L100.325 66.2052L106.28 65.4433ZM105.362 59.5104L106.28 65.4433L100.325 66.2052L99.407 60.2723L105.362 59.5104ZM104.444 53.5775L105.362 59.5104L99.407 60.2723L98.4888 54.3394L104.444 53.5775ZM103.526 47.6447L104.444 53.5775L98.4888 54.3394L97.5706 48.4066L103.526 47.6447ZM97.5706 48.4066L98.4888 54.3394L92.5338 55.1013L91.6156 49.1685L97.5706 48.4066ZM98.4888 54.3394L99.407 60.2723L93.452 61.0342L92.5338 55.1013L98.4888 54.3394ZM99.407 60.2723L100.325 66.2052L94.3702 66.9671L93.452 61.0342L99.407 60.2723ZM100.325 66.2052L101.243 72.138L95.2884 72.8999L94.3702 66.9671L100.325 66.2052ZM101.243 72.138L102.162 78.0709L96.2066 78.8328L95.2884 72.8999L101.243 72.138ZM102.162 78.0709L103.08 84.0038L97.1248 84.7657L96.2066 78.8328L102.162 78.0709ZM103.08 84.0038L103.998 89.9366L98.0431 90.6985L97.1248 84.7657L103.08 84.0038ZM103.998 89.9366L104.916 95.8695L98.9613 96.6314L98.0431 90.6985L103.998 89.9366ZM104.916 95.8695L105.834 101.802L99.8795 102.564L98.9613 96.6314L104.916 95.8695ZM110.871 95.1076L111.789 101.04L105.834 101.802L104.916 95.8695L110.871 95.1076ZM96.2334 157.484L97.1516 163.417L91.1967 164.179L90.2785 158.246L96.2334 157.484ZM72.4136 160.531L73.3318 166.464L67.3769 167.226L66.4587 161.293L72.4136 160.531ZM79.2868 165.702L80.205 171.635L74.25 172.397L73.3318 166.464L79.2868 165.702ZM85.2417 164.941L86.1599 170.873L80.205 171.635L79.2868 165.702L85.2417 164.941ZM91.1967 164.179L92.1149 170.112L86.1599 170.873L85.2417 164.941L91.1967 164.179ZM63.704 143.495L64.6222 149.428L58.6673 150.19L57.7491 144.257L63.704 143.495ZM57.7491 144.257L58.6673 150.19L52.7123 150.951L51.7941 145.019L57.7491 144.257ZM51.7941 145.019L52.7123 150.951L46.7574 151.713L45.8392 145.781L51.7941 145.019ZM45.8392 145.781L46.7574 151.713L40.8024 152.475L39.8842 146.542L45.8392 145.781ZM39.8842 146.542L40.8024 152.475L34.8475 153.237L33.9292 147.304L39.8842 146.542Z" fill="black"/>
</g>
<defs>
<clipPath id="clip0_7_40">
<rect y="-0.000183105" width="254" height="230.95" rx="25.1087" fill="white"/>
</clipPath>
</defs>
</svg>
